# xmcd
#
# Track frame offsets: 
#        150
#        11051
#        25188
#        41576
#        57138
#        63100
#        77163
#
# Disc length: 1206 seconds
#
# Revision: 0
# Processed by: cddbd v1.5.2PL0 Copyright (c) Steve Scherf et al.
# Submitted via: ExactAudioCopy v0.95b4
#
DISCID=4d04b407
DTITLE=林一峰 - 思 生活 Season I 自嘲式的自戀
DYEAR=2007
DGENRE=Country
TTITLE0=私生活-紐約
TTITLE1=廚房
TTITLE2=與你共枕
TTITLE3=公路、塵埃、四合院
TTITLE4=公司裡的愛琴海
TTITLE5=有一種朋友
TTITLE6=晚睡
EXTD=
EXTT0=
EXTT1=
EXTT2=
EXTT3=
EXTT4=
EXTT5=
EXTT6=
PLAYORDER=
